<svg width="512" height="512" viewBox="0 0 512 512" fill="none" xmlns="http://www.w3.org/2000/svg"><?xml version="1.0" standalone="no"?>

  <!-- Background circle --><!DOCTYPE svg PUBLIC "-//W3C//DTD SVG 20010904//EN"

  <circle cx="256" cy="256" r="256" fill="#0EA5E9"/> "http://www.w3.org/TR/2001/REC-SVG-20010904/DTD/svg10.dtd">

  <svg version="1.0" xmlns="http://www.w3.org/2000/svg"

  <!-- Shield shape --> width="230.000000pt" height="256.000000pt" viewBox="0 0 230.000000 256.000000"

  <path d="M256 80L128 144V256C128 337.6 187.2 409.6 256 432C324.8 409.6 384 337.6 384 256V144L256 80Z" fill="#FFFFFF"/> preserveAspectRatio="xMidYMid meet">

  

  <!-- Inner shield --><g transform="translate(0.000000,256.000000) scale(0.100000,-0.100000)"

  <path d="M256 112L160 160V256C160 320 208 377.6 256 396.8C304 377.6 352 320 352 256V160L256 112Z" fill="#0EA5E9"/>fill="#000000" stroke="none">

  <path d="M1260 2221 l0 -58 61 -7 c33 -4 67 -10 76 -13 43 -17 -52 99 -104

  <!-- Dollar sign -->126 -32 17 -33 16 -33 -48z"/>

  <path d="M256 180V332M236 200H266C275.941 200 284 208.059 284 218C284 227.941 275.941 236 266 236H236C226.059 236 218 244.059 218 254C218 263.941 226.059 272 236 272H276C285.941 272 294 280.059 294 290C294 299.941 285.941 308 276 308H236" stroke="#FFFFFF" stroke-width="20" stroke-linecap="round" stroke-linejoin="round"/><path d="M984 2251 c-52 -32 -112 -124 -71 -108 8 3 39 8 70 12 l57 7 0 54 c0

  60 -7 65 -56 35z"/>

  <!-- Small bug icon in corner --><path d="M1015 2084 c-221 -34 -321 -88 -410 -222 -26 -40 -28 -51 -33 -167

  <circle cx="384" cy="128" r="40" fill="#EF4444"/>-4 -110 -7 -125 -22 -125 -40 0 -41 -10 -38 -512 l3 -485 30 -49 c24 -38 70

  <ellipse cx="384" cy="128" rx="20" ry="28" fill="#991B1B"/>-78 215 -187 l184 -138 70 70 c99 96 127 121 140 121 6 0 54 -43 106 -95 l96

  <line x1="364" y1="115" x2="354" y2="105" stroke="#991B1B" stroke-width="4" stroke-linecap="round"/>-95 143 104 c192 140 244 186 270 240 21 45 21 56 21 531 l0 486 -29 5 -29 6

  <line x1="404" y1="115" x2="414" y2="105" stroke="#991B1B" stroke-width="4" stroke-linecap="round"/>-4 112 c-3 94 -7 119 -29 166 -61 132 -198 205 -444 239 -94 13 -126 13 -240

  <line x1="364" y1="141" x2="354" y2="151" stroke="#991B1B" stroke-width="4" stroke-linecap="round"/>-5z m275 -69 c140 -25 233 -60 289 -111 64 -58 85 -116 86 -239 l0 -90 -514

  <line x1="404" y1="141" x2="414" y2="151" stroke="#991B1B" stroke-width="4" stroke-linecap="round"/>-3 -513 -2 4 112 c3 91 8 121 26 154 47 90 150 145 337 178 106 19 182 19 285

</svg>1z m-297 -642 l127 -138 0 -388 0 -388 -50 -52 -50 -52 0 101 0 101 -70 66

-70 66 0 183 0 184 -70 69 c-64 64 -70 73 -70 111 0 27 5 44 14 47 8 3 22 17
31 31 14 21 15 31 5 61 -6 19 -20 40 -30 45 -54 29 -120 -8 -120 -67 0 -32 28
-73 50 -73 6 0 10 -24 10 -53 0 -52 1 -53 70 -122 l70 -69 0 -184 0 -184 70
-72 70 -73 0 -98 c0 -78 -4 -102 -17 -117 -9 -10 -21 -18 -27 -18 -6 1 -81 53
-166 118 -121 92 -159 126 -177 161 -23 44 -23 45 -23 486 0 243 3 445 7 448
3 4 70 7 147 7 l141 0 128 -137z m347 128 c0 -5 -43 -53 -95 -108 l-95 -98
-95 100 c-52 55 -95 103 -95 108 0 4 86 7 190 7 107 0 190 -4 190 -9z m388
-431 c3 -454 1 -483 -40 -535 -21 -27 -288 -231 -316 -242 -7 -3 -22 3 -32 12
-18 16 -20 31 -20 124 l0 107 70 69 70 69 0 182 0 182 70 65 c68 63 70 66 70
114 0 43 4 52 30 71 39 29 42 81 5 117 -30 31 -66 32 -100 3 -37 -32 -38 -84
-2 -113 22 -17 27 -29 27 -64 0 -40 -4 -47 -70 -108 l-70 -65 0 -182 0 -182
-70 -69 -70 -69 0 -93 c0 -51 -3 -93 -7 -93 -5 0 -27 20 -50 43 l-43 44 0 389
0 389 128 137 127 138 145 -3 145 -2 3 -435z m-988 305 c18 -22 8 -50 -19 -50
-32 0 -49 28 -32 49 17 20 35 20 51 1z m870 0 c18 -22 8 -50 -19 -50 -32 0
-49 28 -32 49 17 20 35 20 51 1z"/>
<path d="M1007 1903 c-4 -3 -7 -38 -7 -76 0 -65 2 -73 36 -113 19 -24 40 -44
47 -44 6 0 24 12 39 27 l28 27 28 -27 c15 -15 33 -27 38 -27 6 0 25 18 42 39
30 37 32 45 32 121 0 79 -1 81 -22 78 -21 -3 -23 -9 -26 -78 -4 -91 -15 -110
-49 -79 -20 19 -23 32 -23 91 0 66 -1 69 -22 66 -21 -3 -23 -9 -26 -73 -4 -84
-23 -116 -54 -89 -14 14 -18 32 -18 91 0 64 -2 73 -18 73 -10 0 -22 -3 -25 -7z"/>
<path d="M825 1310 c-7 -11 48 -80 114 -145 l41 -39 0 -135 c0 -133 0 -135
-27 -163 -51 -54 -24 -128 47 -128 71 0 98 74 47 128 -27 28 -27 30 -27 172
l0 145 -87 87 c-48 49 -91 88 -95 88 -4 0 -10 -5 -13 -10z m200 -540 c0 -18
-6 -26 -23 -28 -24 -4 -38 18 -28 44 3 9 15 14 28 12 17 -2 23 -10 23 -28z"/>
<path d="M613 1074 c-4 -10 12 -33 46 -68 l51 -52 0 -186 0 -186 83 -76 c69
-63 84 -73 96 -62 11 12 1 25 -63 86 l-76 73 0 187 0 187 -59 56 c-33 32 -62
57 -66 57 -3 0 -8 -7 -12 -16z"/>
<path d="M1367 1232 l-87 -87 0 -144 0 -143 -30 -28 c-55 -51 -28 -130 45
-130 71 0 102 81 50 130 -24 23 -25 27 -25 159 l0 136 85 85 c65 64 82 87 73
97 -6 7 -13 13 -17 13 -3 0 -46 -39 -94 -88z m-42 -462 c0 -30 -35 -40 -55
-15 -10 12 -10 18 0 30 20 25 55 15 55 -15z"/>
<path d="M1610 1034 l-60 -57 0 -187 0 -187 -76 -73 c-64 -61 -74 -74 -63 -86
12 -11 27 -1 97 62 l82 76 0 186 0 186 56 57 c48 48 53 57 40 68 -13 11 -25 4
-76 -45z"/>
<path d="M1007 152 c-10 -10 -17 -22 -17 -25 0 -9 146 -117 158 -117 10 0 156
109 160 119 1 4 -7 16 -18 26 -19 18 -21 17 -81 -30 l-60 -47 -60 46 c-32 25
-61 46 -62 46 -2 0 -11 -8 -20 -18z"/>
</g>
</svg>
