<svg width="32" height="32" viewBox="0 0 32 32" fill="none" xmlns="http://www.w3.org/2000/svg">
  <!-- Background -->
  <circle cx="16" cy="16" r="16" fill="#0EA5E9"/>
  
  <!-- Shield -->
  <path d="M16 5L8 9V16C8 21.1 11.7 25.6 16 27C20.3 25.6 24 21.1 24 16V9L16 5Z" fill="#FFFFFF"/>
  
  <!-- Inner shield -->
  <path d="M16 7L10 10V16C10 20 13 23.6 16 24.8C19 23.6 22 20 22 16V10L16 7Z" fill="#0EA5E9"/>
  
  <!-- Dollar sign -->
  <path d="M16 11V21M14.5 12.5H17C17.8 12.5 18.5 13.2 18.5 14C18.5 14.8 17.8 15.5 17 15.5H14.5C13.7 15.5 13 16.2 13 17C13 17.8 13.7 18.5 14.5 18.5H17.5C18.3 18.5 19 19.2 19 20C19 20.8 18.3 21.5 17.5 21.5H14.5" stroke="#FFFFFF" stroke-width="1.5" stroke-linecap="round"/>
</svg>
