<svg width="1200" height="630" viewBox="0 0 1200 630" fill="none" xmlns="http://www.w3.org/2000/svg"><svg width="1200" height="630" viewBox="0 0 1200 630" fill="none" xmlns="http://www.w3.org/2000/svg">

  <!-- Background with gradient -->  <!-- Background -->

  <rect width="1200" height="630" fill="#0a0a0a"/>  <rect width="1200" height="630" fill="#0a0a0a"/>

    

  <!-- Subtle grid pattern -->  <!-- Grid Pattern Background -->

  <defs>  <defs>

    <pattern id="grid" width="50" height="50" patternUnits="userSpaceOnUse">    <pattern id="grid" width="40" height="40" patternUnits="userSpaceOnUse">

      <path d="M 50 0 L 0 0 0 50" fill="none" stroke="#1a1a1a" stroke-width="1"/>      <path d="M 40 0 L 0 0 0 40" fill="none" stroke="#1a1a1a" stroke-width="1"/>

    </pattern>    </pattern>

    <linearGradient id="blueGradient" x1="0%" y1="0%" x2="100%" y2="100%">    <linearGradient id="gradient" x1="0%" y1="0%" x2="100%" y2="100%">

      <stop offset="0%" style="stop-color:#0EA5E9;stop-opacity:0.8" />      <stop offset="0%" style="stop-color:#8b5cf6;stop-opacity:1" />

      <stop offset="100%" style="stop-color:#0284C7;stop-opacity:0.8" />      <stop offset="100%" style="stop-color:#3b82f6;stop-opacity:1" />

    </linearGradient>    </linearGradient>

  </defs>  </defs>

    

  <rect width="1200" height="630" fill="url(#grid)" opacity="0.2"/>  <rect width="1200" height="630" fill="url(#grid)" opacity="0.3"/>

    

  <!-- Left side: App Icon (larger) -->  <!-- Bug Icon (Left Side) -->

  <g transform="translate(120, 165)">  <g transform="translate(150, 200)">

    <!-- Circular background -->    <!-- Bug body -->

    <circle cx="150" cy="150" r="140" fill="url(#blueGradient)"/>    <ellipse cx="100" cy="115" rx="80" ry="100" fill="url(#gradient)"/>

        

    <!-- Shield outline (white) -->    <!-- Bug head -->

    <path d="M 150 60 L 210 85 L 210 155 Q 210 205, 150 240 Q 90 205, 90 155 L 90 85 Z"     <circle cx="100" cy="50" r="45" fill="url(#gradient)"/>

          fill="none"     

          stroke="white"     <!-- Antennae -->

          stroke-width="8"/>    <line x1="85" y1="15" x2="70" y2="-10" stroke="url(#gradient)" stroke-width="6" stroke-linecap="round"/>

        <line x1="115" y1="15" x2="130" y2="-10" stroke="url(#gradient)" stroke-width="6" stroke-linecap="round"/>

    <!-- Inner shield (blue) -->    <circle cx="70" cy="-10" r="8" fill="#8b5cf6"/>

    <path d="M 150 75 L 200 95 L 200 155 Q 200 200, 150 230 Q 100 200, 100 155 L 100 95 Z"     <circle cx="130" cy="-10" r="8" fill="#3b82f6"/>

          fill="#0EA5E9"/>    

        <!-- Eyes -->

    <!-- Dollar sign (white with stroke) -->    <circle cx="85" cy="45" r="8" fill="white"/>

    <text x="150" y="180"     <circle cx="115" cy="45" r="8" fill="white"/>

          font-family="Arial, sans-serif"     <circle cx="87" cy="47" r="4" fill="#0a0a0a"/>

          font-size="90"     <circle cx="117" cy="47" r="4" fill="#0a0a0a"/>

          font-weight="bold"     

          fill="white"     <!-- Legs (3 on each side) -->

          stroke="white"    <line x1="40" y1="100" x2="10" y2="85" stroke="url(#gradient)" stroke-width="6" stroke-linecap="round"/>

          stroke-width="6"    <line x1="35" y1="130" x2="0" y2="130" stroke="url(#gradient)" stroke-width="6" stroke-linecap="round"/>

          text-anchor="middle">$</text>    <line x1="40" y1="160" x2="10" y2="175" stroke="url(#gradient)" stroke-width="6" stroke-linecap="round"/>

        

    <!-- Small bug badge in corner -->    <line x1="160" y1="100" x2="190" y2="85" stroke="url(#gradient)" stroke-width="6" stroke-linecap="round"/>

    <circle cx="230" cy="80" r="28" fill="#EF4444"/>    <line x1="165" y1="130" x2="200" y2="130" stroke="url(#gradient)" stroke-width="6" stroke-linecap="round"/>

    <ellipse cx="230" cy="80" rx="16" ry="20" fill="#991B1B"/>    <line x1="160" y1="160" x2="190" y2="175" stroke="url(#gradient)" stroke-width="6" stroke-linecap="round"/>

    <!-- Bug legs -->    

    <line x1="214" y1="72" x2="205" y2="68" stroke="#991B1B" stroke-width="2"/>    <!-- Dollar sign overlay -->

    <line x1="214" y1="80" x2="205" y2="80" stroke="#991B1B" stroke-width="2"/>    <text x="100" y="135" font-family="Arial, sans-serif" font-size="70" font-weight="bold" fill="white" text-anchor="middle">$</text>

    <line x1="214" y1="88" x2="205" y2="92" stroke="#991B1B" stroke-width="2"/>  </g>

    <line x1="246" y1="72" x2="255" y2="68" stroke="#991B1B" stroke-width="2"/>  

    <line x1="246" y1="80" x2="255" y2="80" stroke="#991B1B" stroke-width="2"/>  <!-- Title and Description -->

    <line x1="246" y1="88" x2="255" y2="92" stroke="#991B1B" stroke-width="2"/>  <text x="450" y="220" font-family="Arial, sans-serif" font-size="96" font-weight="bold" fill="white">

  </g>    Buggy Bounty

    </text>

  <!-- Right side: Text content -->  

  <g transform="translate(450, 0)">  <text x="450" y="300" font-family="Arial, sans-serif" font-size="36" fill="#a855f7">

    <!-- Title -->    Find Bugs • Earn Rewards

    <text x="0" y="220"   </text>

          font-family="system-ui, -apple-system, sans-serif"   

          font-size="72"   <text x="450" y="380" font-family="Arial, sans-serif" font-size="28" fill="#888888">

          font-weight="bold"     Secure Bug Bounty Platform on Base

          fill="white">Buggy Bounty</text>  </text>

      

    <!-- Subtitle -->  <!-- Bottom badges -->

    <text x="0" y="280"   <g transform="translate(450, 450)">

          font-family="system-ui, -apple-system, sans-serif"     <rect x="0" y="0" width="180" height="50" rx="25" fill="#1a1a1a" stroke="#8b5cf6" stroke-width="2"/>

          font-size="32"     <text x="90" y="33" font-family="Arial, sans-serif" font-size="24" font-weight="bold" fill="#8b5cf6" text-anchor="middle">

          font-weight="500"       🔒 Secure

          fill="#A855F7">Find Bugs • Earn Rewards</text>    </text>

        

    <!-- Description -->    <rect x="200" y="0" width="180" height="50" rx="25" fill="#1a1a1a" stroke="#3b82f6" stroke-width="2"/>

    <text x="0" y="340"     <text x="290" y="33" font-family="Arial, sans-serif" font-size="24" font-weight="bold" fill="#3b82f6" text-anchor="middle">

          font-family="system-ui, -apple-system, sans-serif"       ⛓️ On-Chain

          font-size="24"     </text>

          fill="#9CA3AF">Secure Bug Bounty Platform on Base</text>    

        <rect x="400" y="0" width="200" height="50" rx="25" fill="#1a1a1a" stroke="#8b5cf6" stroke-width="2"/>

    <!-- Features -->    <text x="500" y="33" font-family="Arial, sans-serif" font-size="24" font-weight="bold" fill="#8b5cf6" text-anchor="middle">

    <g transform="translate(0, 380)">      💰 Rewards

      <!-- Feature 1 -->    </text>

      <g>  </g>

        <rect x="0" y="0" width="8" height="8" rx="4" fill="#0EA5E9"/></svg>

        <text x="20" y="8" 
              font-family="system-ui, -apple-system, sans-serif" 
              font-size="20" 
              fill="#D1D5DB">🔒 Secure</text>
      </g>
      
      <!-- Feature 2 -->
      <g transform="translate(140, 0)">
        <rect x="0" y="0" width="8" height="8" rx="4" fill="#0EA5E9"/>
        <text x="20" y="8" 
              font-family="system-ui, -apple-system, sans-serif" 
              font-size="20" 
              fill="#D1D5DB">⛓️ On-Chain</text>
      </g>
      
      <!-- Feature 3 -->
      <g transform="translate(300, 0)">
        <rect x="0" y="0" width="8" height="8" rx="4" fill="#0EA5E9"/>
        <text x="20" y="8" 
              font-family="system-ui, -apple-system, sans-serif" 
              font-size="20" 
              fill="#D1D5DB">💰 Rewards</text>
      </g>
    </g>
  </g>
  
  <!-- Bottom accent line -->
  <rect x="0" y="620" width="1200" height="10" fill="url(#blueGradient)"/>
</svg>
